<svg width="27" height="26" viewBox="0 0 27 26" fill="none" xmlns="http://www.w3.org/2000/svg">
<g clip-path="url(#clip0)">
<path fill-rule="evenodd" clip-rule="evenodd" d="M26.125 13C26.125 20.1797 20.2767 26 13.0625 26C5.84828 26 0 20.1797 0 13C0 5.8203 5.84828 0 13.0625 0C20.2767 0 26.125 5.8203 26.125 13ZM14.0153 13.509H16.3462L16.6547 10.5252H14.0155V8.76745C14.0155 8.10816 14.4533 7.95336 14.7646 7.95336H16.6626V5.05433L14.0468 5.04343C11.1436 5.04343 10.4839 7.20763 10.4839 8.58971V10.5224H8.80434V13.509H10.4839V22.0073H14.0153V13.509Z" fill="#D31900"/>
</g>
<defs>
<clipPath id="clip0">
<rect width="26.125" height="26" fill="white"/>
</clipPath>
</defs>
</svg>
