<svg width="27" height="26" viewBox="0 0 27 26" fill="none" xmlns="http://www.w3.org/2000/svg">
<g clip-path="url(#clip0)">
<path d="M16.9555 6.91736H9.16901C7.92618 6.91736 6.91504 7.92366 6.91504 9.16055V16.9097C6.91504 18.1466 7.92618 19.1532 9.16901 19.1532H16.9555C18.1983 19.1532 19.2097 18.1469 19.2097 16.9097V9.16055C19.2097 7.92366 18.1986 6.91736 16.9555 6.91736ZM13.0622 17.0633C10.8307 17.0633 9.01504 15.2563 9.01504 13.0351C9.01504 10.8143 10.8307 9.00731 13.0622 9.00731C15.2941 9.00731 17.1097 10.8143 17.1097 13.0351C17.1097 15.256 15.2938 17.0633 13.0622 17.0633ZM17.2398 9.84011C16.7116 9.84011 16.2819 9.41256 16.2819 8.8871C16.2819 8.36164 16.7116 7.93409 17.2398 7.93409C17.7678 7.93409 18.1974 8.36164 18.1974 8.8871C18.1974 9.41256 17.7678 9.84011 17.2398 9.84011Z" fill="#828282"/>
<path d="M13.0623 10.7095C11.7741 10.7095 10.7251 11.7529 10.7251 13.0349C10.7251 14.3176 11.7741 15.3612 13.0623 15.3612C14.3511 15.3612 15.3992 14.3176 15.3992 13.0349C15.3992 11.7531 14.3508 10.7095 13.0623 10.7095Z" fill="#828282"/>
<path d="M13.0625 0C5.84857 0 0 5.82058 0 13C0 20.1794 5.84857 26 13.0625 26C20.2764 26 26.125 20.1794 26.125 13C26.125 5.82058 20.2764 0 13.0625 0ZM20.92 16.9096C20.92 19.0853 19.1419 20.8549 16.9557 20.8549H9.16928C6.98341 20.8549 5.20503 19.0853 5.20503 16.9096V9.16045C5.20503 6.98505 6.98341 5.21518 9.16928 5.21518H16.9557C19.1419 5.21518 20.92 6.98505 20.92 9.16045V16.9096Z" fill="#828282"/>
</g>
<defs>
<clipPath id="clip0">
<rect width="26.125" height="26" fill="white"/>
</clipPath>
</defs>
</svg>
