<svg width="27" height="26" viewBox="0 0 27 26" fill="none" xmlns="http://www.w3.org/2000/svg">
<g clip-path="url(#clip0)">
<path d="M16.9553 6.91736H9.16883C7.926 6.91736 6.91486 7.92366 6.91486 9.16055V16.9097C6.91486 18.1466 7.926 19.1532 9.16883 19.1532H16.9553C18.1981 19.1532 19.2095 18.1469 19.2095 16.9097V9.16055C19.2095 7.92366 18.1984 6.91736 16.9553 6.91736ZM13.0621 17.0633C10.8305 17.0633 9.01486 15.2563 9.01486 13.0351C9.01486 10.8143 10.8305 9.00731 13.0621 9.00731C15.2939 9.00731 17.1095 10.8143 17.1095 13.0351C17.1095 15.256 15.2936 17.0633 13.0621 17.0633ZM17.2396 9.84011C16.7114 9.84011 16.2818 9.41256 16.2818 8.8871C16.2818 8.36164 16.7114 7.93409 17.2396 7.93409C17.7676 7.93409 18.1972 8.36164 18.1972 8.8871C18.1972 9.41256 17.7676 9.84011 17.2396 9.84011Z" fill="#D31900"/>
<path d="M13.0622 10.7095C11.774 10.7095 10.725 11.7529 10.725 13.0349C10.725 14.3176 11.774 15.3612 13.0622 15.3612C14.351 15.3612 15.3991 14.3176 15.3991 13.0349C15.3991 11.7531 14.3507 10.7095 13.0622 10.7095Z" fill="#D31900"/>
<path d="M13.0625 0C5.84857 0 0 5.82058 0 13C0 20.1794 5.84857 26 13.0625 26C20.2764 26 26.125 20.1794 26.125 13C26.125 5.82058 20.2764 0 13.0625 0ZM20.92 16.9096C20.92 19.0853 19.1419 20.8549 16.9557 20.8549H9.16928C6.98341 20.8549 5.20503 19.0853 5.20503 16.9096V9.16045C5.20503 6.98505 6.98341 5.21518 9.16928 5.21518H16.9557C19.1419 5.21518 20.92 6.98505 20.92 9.16045V16.9096Z" fill="#D31900"/>
</g>
<defs>
<clipPath id="clip0">
<rect width="26.125" height="26" fill="white"/>
</clipPath>
</defs>
</svg>
