<svg width="105" height="3" viewBox="0 0 105 3" fill="none" xmlns="http://www.w3.org/2000/svg">
<path d="M105 1.40964C104.466 1.37349 103.976 1.33735 103.442 1.33735C102.908 1.3012 102.418 1.3012 101.884 1.22892C100.727 1.12048 99.6143 1.01205 98.457 0.903614C96.276 0.722892 94.0504 0.542169 91.8694 0.433735C89.8665 0.325301 87.819 0.253012 85.816 0.180723C85.2819 0.180723 84.7478 0.144578 84.2582 0.144578C82.2552 0.108434 80.2522 0.0722892 78.2493 0.0361446C73.6202 0 68.9021 0 64.2285 0C59.6439 0.0361446 55.0594 0.0722892 50.4748 0.144578C48.2048 0.180723 45.9792 0.216867 43.7092 0.253012C41.3056 0.325301 38.9021 0.361446 36.454 0.433735C31.4243 0.578313 26.3947 0.722892 21.4095 0.86747C17.0475 0.975904 12.73 1.22892 8.36795 1.59036C5.5638 1.80723 2.75964 2.06024 0 2.3494C3.16024 2.60241 6.36499 2.78313 9.52522 2.89157C11.6172 2.96386 13.7092 3 15.7567 3C17.092 3 18.4273 2.96386 19.8071 2.96386C20.6528 2.92771 21.454 2.89157 22.2997 2.85542C24.4807 2.74699 26.7062 2.63855 28.9318 2.56627C31.4688 2.45783 33.9614 2.3494 36.4985 2.27711C39.0801 2.16867 41.7062 2.09639 44.3323 1.98795C46.6914 1.91566 49.0059 1.84337 51.365 1.80723C53.635 1.73494 55.9496 1.6988 58.2196 1.66265C60.5341 1.62651 62.8487 1.59036 65.1187 1.59036C67.4778 1.55422 69.7923 1.59036 72.1513 1.59036C76.4243 1.59036 80.7418 1.66265 85.0148 1.77108C87.3739 1.80723 89.7775 1.80723 92.1365 1.80723C94.4956 1.80723 96.8546 1.80723 99.1691 1.77108C100.104 1.77108 101.083 1.73494 102.018 1.6988C102.463 1.66265 102.953 1.66265 103.398 1.59036C103.798 1.55422 104.199 1.48193 104.599 1.40964C104.777 1.44578 104.911 1.40964 105 1.40964Z" fill="#FAD244"/>
</svg>
