<svg width="24" height="24" viewBox="0 0 24 24" fill="none" xmlns="http://www.w3.org/2000/svg">
<path d="M23.8535 22.4395L16.8817 15.4677C18.204 13.8351 19 11.7597 19 9.50004C19 4.26174 14.7383 0 9.49999 0C4.2617 0 0 4.26174 0 9.50004C0 14.7383 4.26174 19.0001 9.50004 19.0001C11.7597 19.0001 13.8351 18.204 15.4677 16.8817L22.4395 23.8536C22.6348 24.0488 22.9513 24.0488 23.1466 23.8536L23.8536 23.1466C24.0488 22.9513 24.0488 22.6347 23.8535 22.4395ZM9.50004 17C5.36429 17 2.00002 13.6358 2.00002 9.50004C2.00002 5.36429 5.36429 2.00002 9.50004 2.00002C13.6358 2.00002 17 5.36429 17 9.50004C17 13.6358 13.6358 17 9.50004 17Z" fill="#D31900"/>
</svg>
