<svg width="27" height="26" viewBox="0 0 27 26" fill="none" xmlns="http://www.w3.org/2000/svg">
<g clip-path="url(#clip0)">
<path fill-rule="evenodd" clip-rule="evenodd" d="M26.1248 12.9999C26.1248 20.1795 20.2766 25.9998 13.0624 25.9998C5.84826 25.9998 3.05176e-05 20.1795 3.05176e-05 12.9999C3.05176e-05 5.82025 5.84826 0 13.0624 0C20.2766 0 26.1248 5.82025 26.1248 12.9999ZM19.2702 9.83121C19.9017 9.7566 20.5039 9.58951 21.0636 9.34249C20.6452 9.96562 20.1159 10.5127 19.5054 10.9507C19.5115 11.0837 19.5145 11.2179 19.5145 11.3526C19.5145 15.4591 16.3738 20.194 10.6308 20.194C8.86768 20.194 7.2261 19.6797 5.84507 18.7977C6.08886 18.8267 6.33801 18.8413 6.58949 18.8413C8.05271 18.8413 9.39881 18.3447 10.4676 17.5112C9.101 17.4859 7.94816 16.5875 7.55092 15.3532C7.74139 15.3894 7.93675 15.4086 8.1384 15.4086C8.42271 15.4086 8.6991 15.3708 8.96082 15.2995C7.53276 15.0142 6.45606 13.7584 6.45606 12.2528C6.45606 12.2399 6.45606 12.2267 6.4563 12.2135C6.87705 12.4468 7.35882 12.5865 7.87039 12.6025C7.03306 12.0454 6.48144 11.0939 6.48144 10.0161C6.48144 9.44677 6.63559 8.91262 6.9043 8.45378C8.44436 10.3343 10.7451 11.5713 13.34 11.7009C13.2865 11.4733 13.2588 11.2362 13.2588 10.9927C13.2588 9.2769 14.657 7.88533 16.381 7.88533C17.2796 7.88533 18.0911 8.2626 18.6606 8.86627C19.3715 8.727 20.04 8.46861 20.6433 8.11243C20.4098 8.83846 19.915 9.44677 19.2702 9.83121Z" fill="#D31900"/>
</g>
<defs>
<clipPath id="clip0">
<rect width="26.125" height="26" fill="white"/>
</clipPath>
</defs>
</svg>
