<svg width="27" height="26" viewBox="0 0 27 26" fill="none" xmlns="http://www.w3.org/2000/svg">
<g clip-path="url(#clip0)">
<path d="M11.4354 15.4355L15.6845 13L11.4354 10.5645V15.4355Z" fill="#828282"/>
<path d="M13.0625 0C5.84938 0 0 5.8214 0 13C0 20.1786 5.84938 26 13.0625 26C20.2756 26 26.125 20.1786 26.125 13C26.125 5.8214 20.2756 0 13.0625 0ZM21.2246 13.0133C21.2246 13.0133 21.2246 15.6497 20.8885 16.9211C20.7002 17.6169 20.1488 18.1656 19.4496 18.3529C18.1722 18.6875 13.0625 18.6875 13.0625 18.6875C13.0625 18.6875 7.96614 18.6875 6.67536 18.3396C5.97615 18.1523 5.42484 17.6034 5.23648 16.9076C4.90023 15.6497 4.90023 13 4.90023 13C4.90023 13 4.90023 10.3637 5.23648 9.09242C5.42464 8.39656 5.9895 7.8344 6.67536 7.64714C7.95279 7.3125 13.0625 7.3125 13.0625 7.3125C13.0625 7.3125 18.1722 7.3125 19.4496 7.66043C20.1488 7.84769 20.7002 8.39656 20.8885 9.09242C21.2381 10.3637 21.2246 13.0133 21.2246 13.0133Z" fill="#828282"/>
</g>
<defs>
<clipPath id="clip0">
<rect width="26.125" height="26" fill="white"/>
</clipPath>
</defs>
</svg>
